<svg xmlns="http://www.w3.org/2000/svg" xmlns:xlink="http://www.w3.org/1999/xlink" viewBox="0 0 666.42 104.37"><defs><style>.cls-1{fill:#9c4170;}.cls-10,.cls-11,.cls-12,.cls-2,.cls-3,.cls-4,.cls-5,.cls-6,.cls-7,.cls-8,.cls-9{stroke:#000;stroke-miterlimit:10;stroke-width:0.25px;}.cls-2{fill:url(#Dégradé_sans_nom_49);}.cls-3{opacity:0.36;fill:url(#Dégradé_sans_nom_54);}.cls-4{fill:url(#Dégradé_sans_nom_16);}.cls-5{fill:url(#Dégradé_sans_nom_10);}.cls-6{fill:url(#Dégradé_sans_nom_11);}.cls-7{fill:url(#Dégradé_sans_nom_10-2);}.cls-8{fill:#333;}.cls-9{fill:url(#Dégradé_sans_nom_10-3);}.cls-10{fill:url(#Dégradé_sans_nom_10-4);}.cls-11{fill:url(#Dégradé_sans_nom_11-2);}.cls-12{fill:url(#Dégradé_sans_nom_10-5);}</style><radialGradient id="Dégradé_sans_nom_49" cx="107.46" cy="65.51" r="17.49" gradientUnits="userSpaceOnUse"><stop offset="0" stop-color="#e6e6e6"/><stop offset="0.52" stop-color="#fff"/><stop offset="1" stop-color="#ccc"/></radialGradient><radialGradient id="Dégradé_sans_nom_54" cx="106.72" cy="65.29" r="15.74" gradientUnits="userSpaceOnUse"><stop offset="0.72" stop-color="#fff"/><stop offset="1" stop-color="#e6e6e6"/></radialGradient><linearGradient id="Dégradé_sans_nom_16" x1="37.64" y1="46.66" x2="109.66" y2="46.66" gradientUnits="userSpaceOnUse"><stop offset="0" stop-color="#a4145a"/><stop offset="1" stop-color="#a4145a"/></linearGradient><linearGradient id="Dégradé_sans_nom_10" x1="38.56" y1="46.21" x2="107.14" y2="46.21" gradientUnits="userSpaceOnUse"><stop offset="0" stop-color="#a4145a"/><stop offset="1" stop-color="#ed1e79"/></linearGradient><linearGradient id="Dégradé_sans_nom_11" x1="43.03" y1="46.66" x2="100.11" y2="46.66" gradientUnits="userSpaceOnUse"><stop offset="0" stop-color="#ed1e79"/><stop offset="1" stop-color="#a4145a"/></linearGradient><linearGradient id="Dégradé_sans_nom_10-2" x1="43.03" y1="45.95" x2="95.87" y2="45.95" xlink:href="#Dégradé_sans_nom_10"/><linearGradient id="Dégradé_sans_nom_10-3" x1="35.48" y1="43.74" x2="75.92" y2="43.74" xlink:href="#Dégradé_sans_nom_10"/><linearGradient id="Dégradé_sans_nom_10-4" x1="28.39" y1="97.88" x2="28.39" y2="26.12" xlink:href="#Dégradé_sans_nom_10"/><linearGradient id="Dégradé_sans_nom_11-2" x1="11.84" y1="55.06" x2="54.17" y2="55.06" xlink:href="#Dégradé_sans_nom_11"/><linearGradient id="Dégradé_sans_nom_10-5" x1="35.47" y1="38.72" x2="62.88" y2="38.72" xlink:href="#Dégradé_sans_nom_10"/></defs><title>logo-showroom-baby-new</title><g id="Calque_2" data-name="Calque 2"><g id="Calque_1-2" data-name="Calque 1"><path d="M160.35,45.7a25.15,25.15,0,0,1-10-5.77,12.08,12.08,0,0,1-3.66-8.87A12.53,12.53,0,0,1,159.25,18.6a12.17,12.17,0,0,1,8.87,3.66,10.58,10.58,0,0,1,2.81,4.4l-3,1.18a9.19,9.19,0,0,0-2.18-3.33A9.22,9.22,0,0,0,150,31.06a8.87,8.87,0,0,0,2.7,6.51,24.66,24.66,0,0,0,6.95,4.54,29.35,29.35,0,0,1,11.94,7.14,16.73,16.73,0,0,1,5.14,12.34,17.53,17.53,0,0,1-34.83,2.85l3.15-1.14a14.27,14.27,0,0,0,24.25,8.39,14.23,14.23,0,0,0,0-20.15A27,27,0,0,0,160.35,45.7Z"/><path d="M184.16,19.3h3.33V44a14.42,14.42,0,0,1,24.73,10.13V78.45h-3.33v-24a10.63,10.63,0,0,0-3.34-7.89,11.3,11.3,0,0,0-15.84-.06,10.78,10.78,0,0,0-2.22,3.07V78.45h-3.33Z"/><path d="M241.39,38.86a20.3,20.3,0,0,1,20.3,20.33,20.3,20.3,0,0,1-40.6,0,20.33,20.33,0,0,1,20.3-20.33Zm-11.87,8.46a16.78,16.78,0,0,0,0,23.72,16.78,16.78,0,0,0,28.65-11.85,16.79,16.79,0,0,0-28.65-11.87Z"/><path d="M288,68.84V42.15h3.32V68a7.35,7.35,0,0,0,2.2,5.43,7.47,7.47,0,0,0,12.74-4.92h0V42.15h3.33V68.54a10.45,10.45,0,0,1-3.14,7.25,10.71,10.71,0,0,1-15.23,0A12.63,12.63,0,0,1,289.71,74a11.72,11.72,0,0,1-1.52,1.77,10.71,10.71,0,0,1-15.23,0,10.45,10.45,0,0,1-3.14-7.25V42.15h3.33V68.54h0a7.53,7.53,0,0,0,7.47,7.1,7.25,7.25,0,0,0,5.28-2.18A7.35,7.35,0,0,0,288,68.84Z"/><path d="M320.65,42.15H324v6.62a21.09,21.09,0,0,1,2.4-2.85q4.39-4.39,9-4.62v3.62q-3.13.15-6.5,3.51A16,16,0,0,0,324,59.71V78.45h-3.33Z"/><path d="M360.13,38.86a20.28,20.28,0,0,1,20.3,20.33,20.3,20.3,0,0,1-40.59,0,20.31,20.31,0,0,1,20.29-20.33Zm-11.86,8.46a16.75,16.75,0,0,0,0,23.72,16.79,16.79,0,0,0,28.65-11.85,16.79,16.79,0,0,0-28.65-11.87Z"/><path d="M407.38,38.86a20.3,20.3,0,0,1,20.3,20.33,20.3,20.3,0,0,1-40.6,0,20.33,20.33,0,0,1,20.3-20.33Zm-11.87,8.46a16.78,16.78,0,0,0,0,23.72,16.78,16.78,0,0,0,28.65-11.85,16.79,16.79,0,0,0-28.65-11.87Z"/><path d="M436.55,42.15h3.32V43a10.77,10.77,0,0,1,15.05.15A10.1,10.1,0,0,1,456.4,45a11.21,11.21,0,0,1,1.52-1.85,10.8,10.8,0,0,1,15.23,0,10.58,10.58,0,0,1,3.14,7.28v28H473v-28h0a7.47,7.47,0,0,0-12.74-4.92,7.39,7.39,0,0,0-2.2,5.44v27.5h-3.32v-28h0a7.46,7.46,0,0,0-7.47-7.1,7.15,7.15,0,0,0-5.24,2.18,7.24,7.24,0,0,0-2.19,4.62V78.45h-3.32Z"/><path class="cls-1" d="M487.38,19.3h3.33v28a20.46,20.46,0,0,1,2.1-2.44,20.29,20.29,0,0,1,34.64,14.38,20.29,20.29,0,0,1-34.64,14.35,21.28,21.28,0,0,1-2.1-2.44v7.35h-3.33Zm3.33,36.42v7A16.8,16.8,0,1,0,519,47.32a16.82,16.82,0,0,0-28.31,8.4Z"/><path class="cls-1" d="M576.81,78.45h-3.33V71.06a24.51,24.51,0,0,1-2.11,2.48A20.31,20.31,0,0,1,536.7,59.19a20.31,20.31,0,0,1,34.67-14.38,24.51,24.51,0,0,1,2.11,2.48V42.15h3.33Zm-3.33-16V55.9a16.8,16.8,0,0,0-33.27,3.29,16.81,16.81,0,0,0,33.27,3.29Z"/><path class="cls-1" d="M588.08,19.3h3.33v28a21.53,21.53,0,0,1,2.11-2.44,20.29,20.29,0,0,1,34.64,14.38,20.29,20.29,0,0,1-34.64,14.35,22.43,22.43,0,0,1-2.11-2.44v7.35h-3.33Zm3.33,36.42v7a16.8,16.8,0,1,0,28.32-15.35,16.82,16.82,0,0,0-28.32,8.4Z"/><path class="cls-1" d="M650.63,75.2l-8.2,17.12h-3.26L649,71.76,634.81,42.15h3.77l12,26,12.06-26h3.73L650.63,75.24Z"/><path class="cls-2" d="M104.42,47.67s20.17,3.41,20.17,22.84c0,20.66-30.77,12.08-33.88,4.11S104.42,47.67,104.42,47.67Z"/><path class="cls-3" d="M104,49.23s18.15,3.08,18.15,20.56c0,18.59-27.7,10.87-30.49,3.69S104,49.23,104,49.23Z"/><path class="cls-4" d="M49.58,38.36S29.65,77.74,41.29,86.69s43,13.64,61.92-20.21S94.74-8,80.61,1.56,49.58,38.36,49.58,38.36Z"/><path class="cls-5" d="M49.58,38.36S31.19,74.71,41.93,83s42.13,13.56,59.6-17.68S91.26-4.47,78.22,4.39,49.58,38.36,49.58,38.36Z"/><path class="cls-6" d="M95,62.37c-12.85,23-32.93,23.54-44.22,18.78a22.3,22.3,0,0,1-4.86-2.77c-9.22-7.09,6.57-38.29,6.57-38.29s13.4-21.56,24.59-29.17A6.46,6.46,0,0,1,81.29,9.8C92.79,10.65,108.27,38.63,95,62.37Z"/><path class="cls-7" d="M90.76,61c-11.37,20.32-28.38,23.12-40,20.2a22.3,22.3,0,0,1-4.86-2.77c-9.22-7.09,6.57-38.29,6.57-38.29s13.4-21.56,24.59-29.17A6.46,6.46,0,0,1,81.29,9.8C91.84,15.87,102.45,40.05,90.76,61Z"/><path class="cls-8" d="M23.61,104.25l.47-.08-.47.08Z"/><path class="cls-9" d="M50.54,72C47.25,71.14,38.33,61.8,38.33,61.8h0c-4.5-4.52-3.65-16.32,2.36-28C46.19,23.11,54.3,16,60.45,15.53c3.31-.26,10.06,1,13.18,1.6a2.45,2.45,0,0,1,1.94,2.06C79.2,44.45,53.76,72.76,50.54,72Z"/><path class="cls-10" d="M56.42,60.57C51.81,76.43,42.28,85.82,41.28,86.68,34.76,92.36,27.73,96,21.34,97.34l-.81.15a0,0,0,0,1,0,0,23.68,23.68,0,0,1-4.13.38,17.9,17.9,0,0,1-6.21-1c-.47-.17-.93-.36-1.37-.57a14.52,14.52,0,0,1-1.29-.7,14,14,0,0,1-2.35-1.8C-4.14,85-.2,64.58,14,48.26a63.51,63.51,0,0,1,7.83-7.61l.09-.07c.63-.51,1.26-1,1.89-1.48l.11-.07c1.75-1.24,3.55-2.41,5.35-3.5a144.06,144.06,0,0,1,18.45-9.41l-2.81,6S35,34.62,23.38,47.06C7.19,67.56,11.58,75.26,15.47,78c0,0,0,0,0,0a5.92,5.92,0,0,0,5.25.71l1.52-.54.35-.14a41,41,0,0,0,5-2.34,55.18,55.18,0,0,0,11.2-8.23c.86-.79,9.23-9.57,10.26-10.68C52.37,53.22,57.86,55.6,56.42,60.57Z"/><path class="cls-11" d="M53.6,34.11c-.51.14-1,.28-1.53.45l0,0a36.67,36.67,0,0,0-3.89,1.48l-.74.34-.79.38-.79.4c-.26.13-.53.27-.79.42-.53.28-1.06.58-1.58.89l-.79.48c-.61.38-1.22.77-1.83,1.18,0,0-3.38,2.84-4.81,3.87C24.59,52.15,16.55,65.14,18,73a8.45,8.45,0,0,0,.51,1.7c.11.25.24.51.37.74a7,7,0,0,0,.44.67,6.3,6.3,0,0,0,2.5,1.94l.37.15c-.49.18-1,.36-1.46.52A5.92,5.92,0,0,1,15.51,78s0,0,0,0c-3.89-2.74-8.28-10.44,7.91-30.94A61.69,61.69,0,0,1,39.09,34.62l.55-.28,1-.5.16-.08a39.1,39.1,0,0,1,4-1.59,32.68,32.68,0,0,1,4.29-1.11.76.76,0,0,1,.3,0l.58.14.36.09a14.86,14.86,0,0,1,3,1.21l.37.2,0,0A.76.76,0,0,1,53.6,34.11Z"/><path class="cls-12" d="M40.79,33.84c-6.16,12.24-7.19,25.07-2,27.57,4.93,2.35,8.45-8.84,14.5-20.58s12.08-20.4,8.46-24.48C59.42,13.67,48,19.57,40.79,33.84Z"/></g></g></svg>